<svg width="160.000000" height="50.000000" viewBox="0 0 160 50" fill="none" xmlns="http://www.w3.org/2000/svg" xmlns:xlink="http://www.w3.org/1999/xlink">
	<desc>
			Created with Pixso.
	</desc>
	<defs>
		<clipPath id="clip0_87">
			<rect id="Безымянный-1 1" rx="0.000000" width="56.000000" height="15.000000" transform="translate(18.500000 19.500000)" fill="white" fill-opacity="0"/>
		</clipPath>
		<clipPath id="clip0_86">
			<rect id="logo-yametric" rx="0.000000" width="159.000000" height="49.000000" transform="translate(0.500000 0.500000)" fill="white" fill-opacity="0"/>
		</clipPath>
	</defs>
	<rect id="logo-yametric" rx="0.000000" width="159.000000" height="49.000000" transform="translate(0.500000 0.500000)" fill="#FFFFFF" fill-opacity="0"/>
	<g clip-path="url(#clip0_86)">
		<rect id="Безымянный-1 1" rx="0.000000" width="56.000000" height="15.000000" transform="translate(18.500000 19.500000)" fill="#FFFFFF" fill-opacity="0"/>
		<g clip-path="url(#clip0_87)">
			<path id="Vector" d="M24.94 20.85L23.84 20.85C21.83 20.85 20.77 21.84 20.77 23.3C20.77 24.96 21.5 25.73 23.01 26.72L24.25 27.53L20.67 32.72L18 32.72L21.22 28.08C19.36 26.8 18.32 25.55 18.32 23.44C18.32 20.79 20.22 19 23.82 19L27.41 19L27.41 32.72L24.94 32.72L24.94 20.85Z" fill="#FFFFFF" fill-opacity="1.000000" fill-rule="nonzero"/>
			<path id="Vector" d="M47.4 22.79L40.33 22.79L40.33 23.64C40.33 26.07 40.17 29.21 39.31 30.87L38.56 30.87L38.56 34.99L40.8 34.99L40.8 32.72L46.24 32.72L46.24 34.99L48.48 34.99L48.48 30.87L47.4 30.87L47.4 22.79ZM44.98 30.86L41.55 30.86C42.23 29.36 42.41 26.66 42.41 24.94L42.41 24.64L44.97 24.64L44.98 30.86Z" fill="#FFFFFF" fill-opacity="1.000000" fill-rule="nonzero"/>
			<path id="Vector" d="M35.11 26.72L31.87 26.72L31.87 22.79L29.45 22.79L29.45 32.72L31.87 32.72L31.87 28.58L35.11 28.58L35.11 32.72L37.54 32.72L37.54 22.79L35.11 22.79L35.11 26.72Z" fill="#FFFFFF" fill-opacity="1.000000" fill-rule="nonzero"/>
			<path id="Vector" d="M72.65 24.45C73.59 24.45 74.51 24.76 75 25.06L75 23.06C74.48 22.78 73.59 22.59 72.39 22.59C69.29 22.59 67.68 24.74 67.68 27.76C67.68 31.08 69.25 32.92 72.49 32.92C73.61 32.92 74.4 32.72 75 32.31L75 30.39C74.38 30.81 73.65 31.06 72.63 31.06C70.9 31.06 70.19 29.76 70.19 27.7C70.19 25.55 71.06 24.45 72.65 24.45L72.65 24.45Z" fill="#FFFFFF" fill-opacity="1.000000" fill-rule="nonzero"/>
			<path id="Vector" d="M67.35 22.79L64.91 22.79L61.48 27.37L61.48 22.79L59.06 22.79L59.06 32.72L61.48 32.72L61.48 27.84L65.07 32.72L67.82 32.72L63.93 27.37L67.35 22.79Z" fill="#FFFFFF" fill-opacity="1.000000" fill-rule="nonzero"/>
			<path id="Vector" d="M53.43 22.59C50.48 22.59 49.07 24.78 49.07 27.78C49.07 31.24 50.83 32.92 53.92 32.92C55.47 32.92 56.61 32.53 57.33 32.05L57.33 30.14C56.57 30.63 55.31 31.06 54.13 31.06C52.35 31.06 51.68 30.25 51.58 28.6L57.43 28.6L57.43 27.35C57.43 23.89 55.86 22.59 53.43 22.59L53.43 22.59ZM54.96 26.85L51.58 26.85C51.64 25.27 52.23 24.44 53.39 24.44C54.6 24.44 54.96 25.41 54.96 26.66L54.96 26.85Z" fill="#FFFFFF" fill-opacity="1.000000" fill-rule="nonzero"/>
		</g>
		<path id="Vector" d="M82.4 20.19C82.4 20.62 82.4 21.12 82.4 21.7C82.39 22.27 82.37 22.83 82.34 23.37L81.88 34.01L81 34.01L81.67 18.45L82.86 18.45L85.19 28.05C85.29 28.43 85.37 28.8 85.43 29.16C85.49 29.52 85.54 29.87 85.56 30.21L85.6 30.21C85.68 29.52 85.81 28.8 85.99 28.05L88.39 18.45L89.61 18.45L90.29 34.01L89.24 34.01L88.78 23.29C88.75 22.68 88.74 22.13 88.74 21.63L88.74 20.18L88.67 20.18C88.6 20.67 88.52 21.14 88.45 21.6C88.37 22.06 88.27 22.52 88.15 22.98L85.98 31.57L85.13 31.57L82.98 22.98C82.86 22.56 82.76 22.13 82.68 21.68C82.6 21.22 82.53 20.73 82.47 20.19L82.4 20.19ZM92.98 28.7C93.01 30.21 93.22 31.36 93.62 32.15C94.01 32.94 94.6 33.34 95.4 33.34C95.76 33.34 96.08 33.28 96.35 33.16C96.63 33.04 96.86 32.91 97.05 32.75C97.27 32.59 97.45 32.39 97.62 32.16L97.94 32.99C97.77 33.24 97.56 33.45 97.31 33.62C97.09 33.78 96.83 33.92 96.5 34.04C96.19 34.17 95.81 34.23 95.37 34.23C94.21 34.23 93.36 33.73 92.81 32.73C92.26 31.73 91.98 30.33 91.98 28.53C91.98 27.63 92.06 26.83 92.22 26.13C92.38 25.42 92.6 24.82 92.88 24.33C93.17 23.83 93.5 23.46 93.9 23.21C94.29 22.96 94.72 22.83 95.18 22.83C95.66 22.83 96.09 22.95 96.46 23.2C96.84 23.44 97.15 23.81 97.4 24.31C97.65 24.8 97.82 25.41 97.92 26.14C98.02 26.88 98.03 27.73 97.94 28.7L92.98 28.7ZM95.18 23.68C94.6 23.68 94.1 24.04 93.69 24.75C93.27 25.47 93.04 26.52 93 27.9L96.98 27.9C97.07 26.44 96.93 25.36 96.56 24.69C96.19 24.01 95.73 23.68 95.18 23.68ZM102.45 23.9L102.45 34.01L101.42 34.01L101.42 23.9L98.88 23.9L98.88 23.04L104.97 23.04L104.97 23.9L102.45 23.9ZM109.67 33.4C110.37 33.4 110.93 32.98 111.34 32.15C111.76 31.32 111.98 30.03 111.98 28.29C111.98 26.84 111.8 25.72 111.43 24.91C111.07 24.12 110.57 23.72 109.93 23.72C109.68 23.72 109.45 23.78 109.22 23.91C109 24.03 108.79 24.19 108.59 24.39C108.4 24.6 108.22 24.83 108.06 25.1C107.9 25.37 107.76 25.65 107.65 25.94L107.65 32.08C107.86 32.52 108.13 32.86 108.45 33.08C108.77 33.29 109.17 33.4 109.67 33.4ZM109.6 34.21C109.18 34.21 108.8 34.12 108.46 33.93C108.12 33.75 107.85 33.52 107.65 33.25L107.65 37.4L106.62 37.4L106.62 23.04L107.52 23.04L107.6 24.85C107.85 24.33 108.17 23.86 108.58 23.45C108.99 23.03 109.5 22.83 110.11 22.83C110.55 22.83 110.96 22.96 111.32 23.22C111.68 23.48 111.99 23.85 112.24 24.32C112.49 24.79 112.67 25.36 112.8 26.01C112.93 26.68 113 27.4 113 28.2C113 30.22 112.68 31.72 112.06 32.72C111.44 33.71 110.62 34.21 109.6 34.21ZM119.98 26.37C119.98 26.08 119.99 25.82 120.01 25.58C120.02 25.34 120.04 25.11 120.07 24.87L120.01 24.87C119.93 25.12 119.85 25.36 119.74 25.58C119.64 25.8 119.53 26.04 119.42 26.29L115.85 34.01L114.98 34.01L114.98 23.04L115.94 23.04L115.94 30.66C115.94 30.95 115.93 31.22 115.91 31.47C115.9 31.72 115.88 31.96 115.85 32.21L115.91 32.21C115.99 31.96 116.08 31.72 116.17 31.48C116.27 31.24 116.39 30.99 116.5 30.75L120.07 23.04L120.96 23.04L120.96 34.01L119.98 34.01L119.98 26.37ZM124.44 34.01L123.42 34.01L123.42 23.04L124.44 23.04L124.44 28.2L128.12 23.04L129.12 23.04L125.51 28.14L129.38 34.01L128.25 34.01L124.44 28.33L124.44 34.01ZM132.78 33.4C133.28 33.4 133.71 33.19 134.07 32.77C134.42 32.35 134.7 31.85 134.91 31.25L134.91 28.22L133.73 28.22C132.82 28.22 132.14 28.44 131.71 28.88C131.27 29.31 131.06 30.01 131.06 30.96C131.06 31.75 131.21 32.35 131.52 32.77C131.84 33.19 132.25 33.4 132.78 33.4ZM135.21 34.01C135.17 33.86 135.12 33.68 135.07 33.45C135.02 33.23 134.98 32.93 134.95 32.53C134.69 33.06 134.36 33.47 133.97 33.77C133.58 34.08 133.11 34.23 132.56 34.23C131.82 34.23 131.22 33.95 130.75 33.39C130.28 32.83 130.06 32.05 130.06 31.05C130.06 29.88 130.37 28.99 130.99 28.39C131.61 27.78 132.52 27.49 133.71 27.49L134.91 27.49L134.91 26.11C134.91 25.27 134.76 24.67 134.45 24.29C134.14 23.91 133.69 23.72 133.08 23.72C132.61 23.72 132.18 23.83 131.78 24.04C131.37 24.24 131.03 24.54 130.77 24.91L130.49 23.94C130.71 23.65 131.04 23.39 131.48 23.16C131.92 22.94 132.45 22.83 133.08 22.83C133.99 22.83 134.7 23.09 135.18 23.6C135.66 24.11 135.91 24.91 135.91 26.01L135.91 31.99C135.91 32.37 135.93 32.75 135.97 33.13C136.02 33.52 136.07 33.81 136.15 34.01L135.21 34.01Z" fill="#FFFFFF" fill-opacity="1.000000" fill-rule="evenodd"/>
	</g>
</svg>
