<svg width="156.000000" height="50.000000" viewBox="0 0 156 50" fill="none" xmlns="http://www.w3.org/2000/svg" xmlns:xlink="http://www.w3.org/1999/xlink">
	<desc>
			Created with Pixso.
	</desc>
	<defs>
		<clipPath id="clip0_63">
			<rect id="roistat_logo 1" rx="0.000000" width="84.000000" height="19.000000" transform="translate(36.500000 15.500000)" fill="white" fill-opacity="0"/>
		</clipPath>
		<clipPath id="clip0_62">
			<rect id="logo-roistat" rx="0.000000" width="155.000000" height="49.000000" transform="translate(0.500000 0.500000)" fill="white" fill-opacity="0"/>
		</clipPath>
	</defs>
	<rect id="logo-roistat" rx="0.000000" width="155.000000" height="49.000000" transform="translate(0.500000 0.500000)" fill="#FFFFFF" fill-opacity="0"/>
	<g clip-path="url(#clip0_62)">
		<rect id="roistat_logo 1" rx="0.000000" width="84.000000" height="19.000000" transform="translate(36.500000 15.500000)" fill="#FFFFFF" fill-opacity="0"/>
		<g clip-path="url(#clip0_63)">
			<mask id="mask0_64" mask-type="alpha" maskUnits="userSpaceOnUse" x="36.000000" y="15.000000" width="85.000000" height="20.000000">
				<path id="Vector" d="M36 15L121 15L121 35L36 35L36 15Z" fill="#FFFFFF" fill-opacity="1.000000" fill-rule="evenodd"/>
			</mask>
			<g mask="url(#mask0_64)">
				<path id="Vector" d="M41.72 24.61C43.74 24.61 45.03 24.25 45.97 23.45C46.8 22.73 47.2 21.76 47.2 20.58C47.2 19.11 46.59 18.12 45.62 17.45C44.57 16.74 43.28 16.54 41.1 16.54L37.64 16.54L37.64 24.61L41.72 24.61ZM36 15L41.21 15C43.47 15 45.22 15.27 46.59 16.18C47.9 17.07 48.84 18.5 48.84 20.49C48.85 22.32 48.04 23.81 46.8 24.72C45.91 25.38 44.87 25.71 43.66 25.91L50.16 34.99L48.17 35L41.83 26.04L37.64 26.04L37.63 34.99L36 34.99L36 15Z" fill="#FFFFFF" fill-opacity="1.000000" fill-rule="evenodd"/>
				<path id="Vector" d="M69.05 21.25L70.23 21.25L70.23 35L69.05 35L69.05 21.25Z" fill="#FFFFFF" fill-opacity="1.000000" fill-rule="evenodd"/>
				<path id="Vector" d="M75.28 32.16C76.71 33.07 78.55 33.55 80.31 33.55C82.55 33.55 83.98 32.77 83.98 31.2C83.98 29.22 81.77 29 79.68 28.68C77.47 28.33 74.95 27.69 74.95 25.02C74.95 22.53 77.09 21.25 80.12 21.25C81.85 21.25 83.61 21.67 84.9 22.37L84.9 24.03C83.5 23.14 81.71 22.69 80.06 22.69C77.98 22.69 76.55 23.41 76.55 24.91C76.55 26.76 78.71 26.94 80.71 27.26C83.12 27.64 85.58 28.28 85.58 31.06C85.58 33.66 83.44 35 80.23 35C78.47 35 76.63 34.59 75.28 33.84L75.28 32.16Z" fill="#FFFFFF" fill-opacity="1.000000" fill-rule="evenodd"/>
				<path id="Vector" d="M90.5 30.18L90.5 22.87L87.94 22.87L87.94 21.47L90.5 21.47L90.5 17.76L92.05 17.5L92.05 21.47L96.2 21.47L96.2 22.87L92.05 22.87L92.05 29.91C92.05 31.9 92.33 33.54 94.37 33.54C95.05 33.54 95.71 33.36 96.2 33.06L96.2 34.56C95.71 34.81 94.95 35 94.16 35C93.22 35 92.15 34.73 91.42 33.87C90.76 33.09 90.5 31.9 90.5 30.18Z" fill="#FFFFFF" fill-opacity="1.000000" fill-rule="evenodd"/>
				<path id="Vector" d="M106.79 32.03L106.79 29.07C105.83 28.77 104.71 28.59 103.69 28.59C101.92 28.59 100.09 29.17 100.09 31.12C100.09 32.83 101.48 33.58 103.01 33.58C104.43 33.58 105.8 32.94 106.79 32.03ZM99.86 34.09C99.05 33.45 98.56 32.49 98.56 31.26C98.56 29.87 99.17 28.88 100.14 28.21C101.08 27.57 102.35 27.33 103.57 27.33C104.71 27.33 105.75 27.52 106.79 27.81L106.79 26.29C106.79 25.01 106.56 24.18 105.88 23.54C105.29 23.01 104.43 22.71 103.31 22.71C101.84 22.71 100.49 23.22 99.48 24L99.48 22.42C100.49 21.75 101.89 21.25 103.47 21.25C104.96 21.25 106.18 21.65 107.02 22.39C107.86 23.14 108.29 24.32 108.29 25.92L108.29 31.6C108.29 32.73 108.54 33.55 109.56 33.55C109.86 33.55 110.14 33.47 110.37 33.34L110.37 34.7C110.09 34.84 109.71 34.92 109.28 34.92C108.21 34.92 107.37 34.38 107.02 33.37L106.97 33.37C106.03 34.22 104.51 35 102.8 35C101.74 35 100.67 34.73 99.86 34.09Z" fill="#FFFFFF" fill-opacity="1.000000" fill-rule="evenodd"/>
				<path id="Vector" d="M115.29 30.18L115.29 22.87L112.73 22.87L112.73 21.47L115.29 21.47L115.29 17.76L116.84 17.5L116.84 21.47L121 21.47L121 22.87L116.84 22.87L116.84 29.91C116.84 31.9 117.12 33.54 119.16 33.54C119.84 33.54 120.5 33.36 121 33.06L121 34.56C120.5 34.81 119.74 35 118.96 35C118.01 35 116.94 34.73 116.21 33.87C115.56 33.09 115.29 31.9 115.29 30.18Z" fill="#FFFFFF" fill-opacity="1.000000" fill-rule="evenodd"/>
				<path id="Vector" d="M61.01 26.16C61.37 26.72 61.58 27.39 61.58 28.12C61.58 29.99 60.21 31.49 58.43 31.49C56.64 31.49 55.27 29.99 55.27 28.12C55.27 26.25 56.64 24.75 58.43 24.75C59.22 24.75 59.93 25.05 60.48 25.55L62.8 22.64C61.61 21.76 60.11 21.25 58.43 21.25C54.37 21.25 51.34 24.24 51.34 28.12C51.34 32 54.37 35 58.43 35C62.48 35 65.51 32 65.51 28.12C65.51 26.51 64.99 25.05 64.08 23.9L61.01 26.16Z" fill="#FFFFFF" fill-opacity="1.000000" fill-rule="evenodd"/>
				<path id="Vector" d="M69.57 18.75L72.59 16.33C72.23 15.83 71.81 15.38 71.33 15L69.05 18.09C69.25 18.28 69.42 18.5 69.57 18.75Z" fill="#FFFFFF" fill-opacity="1.000000" fill-rule="evenodd"/>
			</g>
		</g>
	</g>
</svg>
