<svg xmlns="http://www.w3.org/2000/svg" width="160.000000" height="50.000000" fill="none" viewBox="0 0 160 50"><defs><clipPath id="b"><rect width="56.000000" height="15.000000" fill="#fff" fill-opacity="0" rx="0.000000" transform="translate(18.5 19.5)"/></clipPath><clipPath id="a"><rect width="159.000000" height="49.000000" fill="#fff" fill-opacity="0" rx="0.000000" transform="translate(.5 .5)"/></clipPath></defs><rect width="159.000000" height="49.000000" rx="0.000000" transform="translate(.5 .5)"/><g clip-path="url(#a)"><rect width="56.000000" height="15.000000" rx="0.000000" transform="translate(18.5 19.5)"/><g fill="#FFF" fill-opacity="1.000000" clip-path="url(#b)"><path d="M24.94 20.85h-1.1c-2.01 0-3.07.99-3.07 2.45 0 1.66.73 2.43 2.24 3.42l1.24.81-3.58 5.19H18l3.22-4.64c-1.86-1.28-2.9-2.53-2.9-4.64 0-2.65 1.9-4.44 5.5-4.44h3.59v13.72h-2.47zm22.46 1.94h-7.07v.85c0 2.43-.16 5.57-1.02 7.23h-.75v4.12h2.24v-2.27h5.44v2.27h2.24v-4.12H47.4zm-2.42 8.07h-3.43c.68-1.5.86-4.2.86-5.92v-.3h2.56zm-9.87-4.14h-3.24v-3.93h-2.42v9.93h2.42v-4.14h3.24v4.14h2.43v-9.93h-2.43zm37.54-2.27c.94 0 1.86.31 2.35.61v-2c-.52-.28-1.41-.47-2.61-.47-3.1 0-4.71 2.15-4.71 5.17 0 3.32 1.57 5.16 4.81 5.16 1.12 0 1.91-.2 2.51-.61v-1.92c-.62.42-1.35.67-2.37.67-1.73 0-2.44-1.3-2.44-3.36 0-2.15.87-3.25 2.46-3.25m-5.3-1.66h-2.44l-3.43 4.58v-4.58h-2.42v9.93h2.42v-4.88l3.59 4.88h2.75l-3.89-5.35zm-13.92-.2c-2.95 0-4.36 2.19-4.36 5.19 0 3.46 1.76 5.14 4.85 5.14 1.55 0 2.69-.39 3.41-.87v-1.91c-.76.49-2.02.92-3.2.92-1.78 0-2.45-.81-2.55-2.46h5.85v-1.25c0-3.46-1.57-4.76-4-4.76m1.53 4.26h-3.38c.06-1.58.65-2.41 1.81-2.41 1.21 0 1.57.97 1.57 2.22z"/></g><path fill="#FFF" fill-opacity="1.000000" fill-rule="evenodd" d="M82.4 20.19v1.51c-.01.57-.03 1.13-.06 1.67l-.46 10.64H81l.67-15.56h1.19l2.33 9.6a12.3 12.3 0 0 1 .37 2.16h.04q.12-1.035.39-2.16l2.4-9.6h1.22l.68 15.56h-1.05l-.46-10.72c-.03-.61-.04-1.16-.04-1.66v-1.45h-.07c-.07.49-.15.96-.22 1.42q-.12.69-.3 1.38l-2.17 8.59h-.85l-2.15-8.59c-.12-.42-.22-.85-.3-1.3-.08-.46-.15-.95-.21-1.49zm10.58 8.51c.03 1.51.24 2.66.64 3.45.39.79.98 1.19 1.78 1.19.36 0 .68-.06.95-.18.28-.12.51-.25.7-.41.22-.16.4-.36.57-.59l.32.83q-.255.375-.63.63c-.22.16-.48.3-.81.42-.31.13-.69.19-1.13.19-1.16 0-2.01-.5-2.56-1.5s-.83-2.4-.83-4.2q0-1.35.24-2.4.24-1.065.66-1.8c.29-.5.62-.87 1.02-1.12.39-.25.82-.38 1.28-.38.48 0 .91.12 1.28.37.38.24.69.61.94 1.11.25.49.42 1.1.52 1.83.1.74.11 1.59.02 2.56zm2.2-5.02c-.58 0-1.08.36-1.49 1.07q-.63 1.08-.69 3.15h3.98c.09-1.46-.05-2.54-.42-3.21-.37-.68-.83-1.01-1.38-1.01m7.27.22v10.11h-1.03V23.9h-2.54v-.86h6.09v.86zm7.22 9.5c.7 0 1.26-.42 1.67-1.25.42-.83.64-2.12.64-3.86 0-1.45-.18-2.57-.55-3.38-.36-.79-.86-1.19-1.5-1.19-.25 0-.48.06-.71.19q-.33.18-.63.48c-.19.21-.37.44-.53.71s-.3.55-.41.84v6.14c.21.44.48.78.8 1 .32.21.72.32 1.22.32m-.07.81c-.42 0-.8-.09-1.14-.28-.34-.18-.61-.41-.81-.68v4.15h-1.03V23.04h.9l.08 1.81c.25-.52.57-.99.98-1.4.41-.42.92-.62 1.53-.62.44 0 .85.13 1.21.39s.67.63.92 1.1.43 1.04.56 1.69c.13.67.2 1.39.2 2.19 0 2.02-.32 3.52-.94 4.52-.62.99-1.44 1.49-2.46 1.49m10.38-7.84c0-.29.01-.55.03-.79.01-.24.03-.47.06-.71h-.06c-.08.25-.16.49-.27.71-.1.22-.21.46-.32.71l-3.57 7.72h-.87V23.04h.96v7.62q0 .435-.03.81c-.01.25-.03.49-.06.74h.06c.08-.25.17-.49.26-.73.1-.24.22-.49.33-.73l3.57-7.71h.89v10.97h-.98zm4.46 7.64h-1.02V23.04h1.02v5.16l3.68-5.16h1l-3.61 5.1 3.87 5.87h-1.13l-3.81-5.68zm8.34-.61q.75 0 1.29-.63c.35-.42.63-.92.84-1.52v-3.03h-1.18c-.91 0-1.59.22-2.02.66-.44.43-.65 1.13-.65 2.08 0 .79.15 1.39.46 1.81.32.42.73.63 1.26.63m2.43.61c-.04-.15-.09-.33-.14-.56a6.5 6.5 0 0 1-.12-.92c-.26.53-.59.94-.98 1.24-.39.31-.86.46-1.41.46-.74 0-1.34-.28-1.81-.84s-.69-1.34-.69-2.34c0-1.17.31-2.06.93-2.66.62-.61 1.53-.9 2.72-.9h1.2v-1.38c0-.84-.15-1.44-.46-1.82s-.76-.57-1.37-.57c-.47 0-.9.11-1.3.32-.41.2-.75.5-1.01.87l-.28-.97q.33-.435.99-.78c.44-.22.97-.33 1.6-.33.91 0 1.62.26 2.1.77s.73 1.31.73 2.41v5.98q0 .57.06 1.14c.05.39.1.68.18.88z"/></g></svg>