<svg xmlns="http://www.w3.org/2000/svg" width="156.000000" height="50.000000" fill="none" viewBox="0 0 156 50"><defs><clipPath id="b"><rect width="84.000000" height="19.000000" fill="#fff" fill-opacity="0" rx="0.000000" transform="translate(36.5 15.5)"/></clipPath><clipPath id="a"><rect width="155.000000" height="49.000000" fill="#fff" fill-opacity="0" rx="0.000000" transform="translate(.5 .5)"/></clipPath></defs><rect width="155.000000" height="49.000000" rx="0.000000" transform="translate(.5 .5)"/><g clip-path="url(#a)"><rect width="84.000000" height="19.000000" rx="0.000000" transform="translate(36.5 15.5)"/><g clip-path="url(#b)"><mask id="c" width="85.000000" height="20.000000" x="36.000000" y="15.000000" mask-type="alpha" maskUnits="userSpaceOnUse"><path fill="#FFF" fill-opacity="1.000000" fill-rule="evenodd" d="M36 15h85v20H36z"/></mask><g fill="#FFF" fill-opacity="1.000000" fill-rule="evenodd" mask="url(#c)"><path d="M41.72 24.61c2.02 0 3.31-.36 4.25-1.16.83-.72 1.23-1.69 1.23-2.87 0-1.47-.61-2.46-1.58-3.13-1.05-.71-2.34-.91-4.52-.91h-3.46v8.07zM36 15h5.21c2.26 0 4.01.27 5.38 1.18 1.31.89 2.25 2.32 2.25 4.31.01 1.83-.8 3.32-2.04 4.23-.89.66-1.93.99-3.14 1.19l6.5 9.08-1.99.01-6.34-8.96h-4.19l-.01 8.95H36zm33.05 6.25h1.18V35h-1.18zm6.23 10.91c1.43.91 3.27 1.39 5.03 1.39 2.24 0 3.67-.78 3.67-2.35 0-1.98-2.21-2.2-4.3-2.52-2.21-.35-4.73-.99-4.73-3.66 0-2.49 2.14-3.77 5.17-3.77 1.73 0 3.49.42 4.78 1.12v1.66c-1.4-.89-3.19-1.34-4.84-1.34-2.08 0-3.51.72-3.51 2.22 0 1.85 2.16 2.03 4.16 2.35 2.41.38 4.87 1.02 4.87 3.8 0 2.6-2.14 3.94-5.35 3.94-1.76 0-3.6-.41-4.95-1.16zm15.22-1.98v-7.31h-2.56v-1.4h2.56v-3.71l1.55-.26v3.97h4.15v1.4h-4.15v7.04c0 1.99.28 3.63 2.32 3.63.68 0 1.34-.18 1.83-.48v1.5c-.49.25-1.25.44-2.04.44-.94 0-2.01-.27-2.74-1.13-.66-.78-.92-1.97-.92-3.69m16.29 1.85v-2.96c-.96-.3-2.08-.48-3.1-.48-1.77 0-3.6.58-3.6 2.53 0 1.71 1.39 2.46 2.92 2.46 1.42 0 2.79-.64 3.78-1.55m-6.93 2.06c-.81-.64-1.3-1.6-1.3-2.83 0-1.39.61-2.38 1.58-3.05.94-.64 2.21-.88 3.43-.88 1.14 0 2.18.19 3.22.48v-1.52c0-1.28-.23-2.11-.91-2.75-.59-.53-1.45-.83-2.57-.83-1.47 0-2.82.51-3.83 1.29v-1.58c1.01-.67 2.41-1.17 3.99-1.17 1.49 0 2.71.4 3.55 1.14.84.75 1.27 1.93 1.27 3.53v5.68c0 1.13.25 1.95 1.27 1.95.3 0 .58-.08.81-.21v1.36c-.28.14-.66.22-1.09.22-1.07 0-1.91-.54-2.26-1.55h-.05c-.94.85-2.46 1.63-4.17 1.63-1.06 0-2.13-.27-2.94-.91m15.43-3.91v-7.31h-2.56v-1.4h2.56v-3.71l1.55-.26v3.97H121v1.4h-4.16v7.04c0 1.99.28 3.63 2.32 3.63.68 0 1.34-.18 1.84-.48v1.5c-.5.25-1.26.44-2.04.44-.95 0-2.02-.27-2.75-1.13-.65-.78-.92-1.97-.92-3.69m-54.28-4.02c.36.56.57 1.23.57 1.96 0 1.87-1.37 3.37-3.15 3.37-1.79 0-3.16-1.5-3.16-3.37s1.37-3.37 3.16-3.37c.79 0 1.5.3 2.05.8l2.32-2.91c-1.19-.88-2.69-1.39-4.37-1.39-4.06 0-7.09 2.99-7.09 6.87S54.37 35 58.43 35c4.05 0 7.08-3 7.08-6.88 0-1.61-.52-3.07-1.43-4.22zm8.56-7.41 3.02-2.42c-.36-.5-.78-.95-1.26-1.33l-2.28 3.09c.2.19.37.41.52.66"/></g></g></g></svg>